<?xml version="1.0" standalone="no"?>
<!DOCTYPE svg PUBLIC "-//W3C//DTD SVG 20010904//EN"
 "http://www.w3.org/TR/2001/REC-SVG-20010904/DTD/svg10.dtd">
<svg version="1.0" xmlns="http://www.w3.org/2000/svg"
 width="260.000000pt" height="260.000000pt" viewBox="0 0 260.000000 260.000000"
 preserveAspectRatio="xMidYMid meet">
<metadata>
Created by potrace 1.11, written by Peter Selinger 2001-2013
</metadata>
<g transform="translate(0.000000,260.000000) scale(0.100000,-0.100000)"
fill="#000000" stroke="none">
<path d="M1680 1815 c-136 -31 -269 -125 -333 -235 -158 -274 -56 -637 215
-765 349 -165 748 75 748 452 l0 63 -280 0 -280 0 0 -55 0 -55 206 0 207 0 -7
-42 c-23 -145 -129 -253 -277 -284 -281 -59 -507 172 -461 471 22 142 92 244
207 300 50 25 74 30 155 33 79 3 105 0 151 -17 66 -25 136 -83 164 -135 l20
-36 77 0 c47 0 78 4 78 10 0 19 -42 95 -78 137 -47 58 -140 119 -219 143 -89
27 -211 34 -293 15z"/>
<path d="M340 1295 l0 -525 65 0 65 0 0 219 0 219 168 3 c166 4 168 4 234 37
111 54 158 133 158 262 0 127 -48 208 -153 259 -80 39 -161 51 -369 51 l-168
0 0 -525z m477 373 c52 -34 73 -80 73 -160 0 -81 -22 -125 -81 -158 -40 -23
-56 -25 -191 -28 l-148 -4 0 192 0 192 153 -4 c147 -3 155 -4 194 -30z"/>
</g>
</svg>
